<svg xmlns="http://www.w3.org/2000/svg" width="318.7" height="259.7" overflow="visible">
  <style>
    .st0{fill:none;stroke:#FF7E78;stroke-width:2px;stroke-linecap:round;stroke-linejoin:round;stroke-miterlimit:10}
  </style>
  <path class="st0" d="M6 155v-1c2-4 3-7 6-10l3-3 5-1 5 1 1 1 6 2 2 1h1l13 13c2 2 3 4 3 7 2 6 0 11-5 15l-12 6c-4 1-8 3-11 6a38 38 0 00-9 19c0 7 2 13 7 18 2 2 5 3 9 4s8 0 11-2c6-3 11-8 16-12s10-9 17-12l10-2 10 4 12 12 20 21c4 4 9 8 15 11 4 3 9 5 15 6h15c5 0 9-1 14-3l15-5c8-5 15-10 19-18 3-3 4-7 5-11l1-10-1-7c-1-9-4-18-7-26a144 144 0 01-4-27c1-10 5-18 13-23 4-3 9-4 14-5l6-1h7a84 84 0 0123 5 57 57 0 0141 46l1 6v7c0 5-2 10-4 15a55 55 0 01-23 22c-2 2-6 3-9 4-4 0-7-1-10-4-3-2-4-5-6-8l-8-16c-3-5-6-11-11-15a33 33 0 00-25-9l-5 1"/>
  <path class="st0" d="M84 111c-2 1-2 2-2 4-1 4 0 8 1 11l7 11c3 2 6 4 9 4l19 1h37a149 149 0 0019-3c4 0 6-3 7-7l2-6v-5l-1-2-1 1-7 5-11 4-7 1-7 1h-18l-6 1-16-1c-5 0-11-1-16-4l-3-1M102 142l1 3c1 6 4 11 7 15a85 85 0 0032 30 90 90 0 0023 7l9 1c4 0 9-1 13-3 5-2 9-6 14-9l12-7 4-2M163 24l1-1 3-4v-7l-2-9-2-2c-2-1-3-1-5 1l-5 8-2 5-5 2-19 1-8-1c-2 0-3-2-4-5-1-2-1-5-3-7-1-2-2-4-4-4-3-1-5 0-7 3l-1 7v12l1 1 1 7 2 5v3"/>
  <path class="st0" d="M162 24c-1-1-3 0-4 1l-4 6-1 5v2c2 1 3 2 5 1l6-1c3-1 5 1 7 2s4 3 4 6l2 7v9l1 4v6l1 10a119 119 0 010 10l1 10v9l-1 6-5 5-9 2-7 1h-46"/>
  <path class="st0" d="M159 90v3l-3 7-1 1-2 1-2 2-2-2c-3-2-5-4-6-7l1-4 2-7c1-6-1-9-5-12l-6-3c-6-1-13 2-15 8s0 13 6 16l6 2h5c2 0 2 1 3 2l4 5c1 2 3 3 5 3l2-1M51 73l1-6-1-8-4-6c-3-2-9-1-12 3l-2 6v4c0 3 1 7 3 9 1 2 2 3 4 3l4-1 4-5 4 1c2 1 2 3 1 5l-3 5a16 16 0 01-18 4l-2-1c-1-1-2-2-4-1l-3-2-7-4c-2-1-3 0-4 1L7 93l-3 14-2 10-1 8-1 9 1 9 1 6M111 41c-2-2-4-2-6-2l-9 2c-2 1-4 3-5 6l-4 14-1 9v7l-1 13-1 10v10l1 5c-1 3 1 5 2 7l3 3"/>
  <path class="st0" d="M28 49v1c-2 2-2 4-3 7v9c0 5 2 9 5 13l6 5c5 2 11 0 13-5l2-6M25 142l-2 4 1 4c3 8 9 13 16 17l4 1c1-1 2-1 2-3l-1-4a41 41 0 00-11-14l-1-2M31 87c-1 3-3 4-5 6-4 3-6 7-7 12l-1 8v8l-1 9-1 8v2M156 40v8l2 7 4 11 3 9c0 2 0 5-2 7l-1 1M112 125c0-3-1-4-3-5a36 36 0 00-17-6c-1 0-2 1-1 2l5 4 10 2 4 1 1-1"/>
  <path class="st0" d="M40 47h-2c-3-1-6 0-9 1l-2 1-3 1-5 6-4 9c0 4-1 7 1 10l5 5 5 3 1 1M15 142l1 2-1 6v9l-1 5v3l1 1 12 11 2 2v3l-5 2c-3 1-7 0-10-1l-1-1M48 72c2-6-1-10-6-12-2 0-3 1-4 3 0 4 1 7 5 8l4 1M86 116c3 4 7 6 12 8l7 1h7M112 62l3 7 2 2c1 1 3 0 4-2 2-3 1-7-4-8h-4M136 53c-2 3-2 7-1 10l4 2 3-3c0-2 0-5-2-7l-1-1M111 59l1-9 1-6-2-3v-1l1-7c-1-3-1-6-3-8s-4-3-7-2l-1 1M125 109l1-2c2-1 3-2 3-4s0-3-2-4h-4c-3 2-3 5-1 8l1 1"/>
  <path class="st0" d="M112 125l-1 1-4 2c-5 0-9-1-14-3-2-1-3 0-4 2l2 5c3 4 7 6 11 6l1 1M158 71l-3-1c-2 0-3 1-4 3s0 5 2 5c3 1 5 0 6-3l-1-3M115 109h-6c-1 0-2 1-1 2 1 2 3 3 6 4h7c1 0 2-1 0-2l-3-2-3-2-2-2c-5-3-8-8-9-14l-2-7-1-9 4-13c1-2 2-3 4-3l2-2 2-1 4-6 3-3c1-2 4-2 6-2l12 1 9-2 4-3c1-2 1-4-1-6-2-3-5-4-8-5h-22c-2 0-5-1-6-3-1-3 0-5 3-5l11-1h8l11 1 7 1 3 2 1 1 5-4"/>
  <path class="st0" d="M143 110l-4 1h-2c-1 2-3 1-4 1l-7-2-2-2h-3c-3-1-5-3-7-6l-2-2h-1l-4-8-1-3-2-4 1-8h1c0-3 2-5 4-5 3-1 5 0 6 3 0 4-3 6-6 5l-4-2v-1"/>
  <path class="st0" d="M124 54l-1 3c-1 3 1 6 4 7l3-1c2-1 2-3 1-5l-4-4h-2c-2 0-5 0-7 2l-4 3-1 2-1 1c-4 2-6 5-7 9v2l1 2M106 87l2-3c3-3 6-2 7 1s0 5-2 6h-6M102 141l1-3h8c-1-1-2-3-4-3s-3 1-4 3M100 25c-2 1-2 2-2 4-1 4 1 6 5 8l1 1M158 71v-1l-3-9-2-2h-2M14 166l-2-2-6-7-2-3c0-1-1-1-2 1l-1 3 1 4 1 2 1 2 1 3 1 2 4 6-4 4v3l2 3c2 1 4 0 5-2v-1l-1-2-1-3-1-2M112 100v-3l2-4c2-1 4 0 5 1 2 2 1 5-1 6l-4 2M139 110l1-1c2-2 2-4 1-6 0-2-2-3-4-3-4-1-6 3-5 6l4 4 1 1M111 41l-2 5-1 6v5l2 2h1"/>
  <path class="st0" d="M126 54c0-2 1-2 2-2l7 1h4l3 1 7 4c2 2 3 4 3 7 0 2 0 3-2 4-3 2-5 0-5-3-1-2 1-4 3-6l2-1M159 74l2 2 1 3v4l-1 1-2 6c-2 1-2 4-3 6l-2 3v2M4 168v4l3 7M117 111l1 1 1 3c1 3-1 6-3 7l-4 1M14 167l-1 5-3 5M6 157l-1 3-1 3-1 1M12 183h-1l-3-3"/>
</svg>
