<svg xmlns="http://www.w3.org/2000/svg" width="230.2" height="954.4" overflow="visible" viewBox="-15 0 250 990">
  <path class="path" d="M53 0v18l3 43 4 72c0 2 2 4 5 3l8-2c8-4 39-13 65-2s30 19 20 26c-9 7-41 19-55 12-15-8-20-18-20-18s-9-7 9-11c19-4 26-4 32 0s11 16 9 18c-2 3-13-2-13-2s-21-9-7-17c12-7 91 5 100-5 0 0 17-22 17-40v-4c0-2-3-4-5-3-6 1-16 2-34 2l-50 1-61 3c-9 0-24-4-35-1l-14 3h-4c-2-1-4 1-3 3 2 13 11 58 12 81 2 26 0 32-1 49-1 20-1 24-3 31-1 8-5 18-5 24-1 10 3 13 7 16 3 2 15 1 18 0l15-7c9-6 6-25-3-18s-7 18-4 29 2 28 2 29 7 28-5 31c-11 3-23 5-25 2s-15-11-8-10 15 6 20 5c6-1 24-10 28-7 4 2 13 9 5 9-9-1-12-5-17-4-5 2-3 18-3 18s6 14 3 27-10 31 3 37 23 5 35-11 26-23 25-35c0-11 5-19-14-17a159 159 0 00-61 18c-11 5-38 22-29 55 12 42 21 50 21 77v101s-8 51-10 56c-1 6-16 63-17 86-1 24-14 144-12 183" fill="none" stroke="#FFC7C4" stroke-width="4px" stroke-miterlimit="10"/>
</svg>
