<svg width="170" height="313" viewBox="0 0 170 313" fill="none" xmlns="http://www.w3.org/2000/svg">
<path d="M43.7222 188.851C52.7335 240.512 47.3252 265.04 43.7222 311.351H95.7222C90.2988 284.209 86.2222 257.351 95.7222 241.851C105.222 226.351 148.722 230.851 161.222 209.851C173.722 188.851 166.722 135.851 166.722 135.851C154.637 114.65 144.722 112.351 137.222 130.851C129.722 149.351 148.222 165.851 137.222 181.851C126.222 197.851 111.722 215.351 92.2222 209.851C72.7222 204.351 92.2222 135.851 92.2222 135.851C107.222 81.351 84.7222 26.851 71.2222 10.851C57.7222 -5.14899 36.9222 -1.54899 49.7222 20.851C62.5222 43.251 71.2222 126.851 43.7222 148.351C40.8412 145.149 36.2222 148.351 33.7222 130.851C31.2222 113.351 29.7222 57.351 29.7222 57.351C19.374 48.0431 13.5703 48.9671 3.22222 57.351C3.22222 57.351 -1.77778 94.351 3.22222 130.851C8.22222 167.351 43.7222 188.851 43.7222 188.851Z" fill="#33C241" stroke="black" stroke-width="2"/>
</svg>
