<svg width="141" height="37" fill="none" xmlns="http://www.w3.org/2000/svg">
  <path d="M32.128 12.718c-.36-2.484-1.224-4.662-2.592-6.534a13.903 13.903 0 00-5.184-4.266C22.264.946 19.96.46 17.44.46c-3.132 0-5.976.738-8.532 2.214C6.352 4.186 4.336 6.31 2.86 9.046 1.42 11.818.7 14.986.7 18.55c0 3.564.72 6.714 2.16 9.45 1.476 2.772 3.492 4.896 6.048 6.372 2.556 1.512 5.4 2.268 8.532 2.268 2.556 0 4.878-.504 6.966-1.512a12.845 12.845 0 005.13-4.266c1.368-1.836 2.232-4.014 2.592-6.534H28.24c-.756 2.628-2.106 4.68-4.05 6.156s-4.194 2.214-6.75 2.214c-2.232 0-4.302-.558-6.21-1.674-1.908-1.116-3.438-2.754-4.59-4.914-1.152-2.124-1.728-4.644-1.728-7.56 0-2.916.576-5.454 1.728-7.614 1.152-2.124 2.682-3.744 4.59-4.86 1.908-1.08 3.978-1.62 6.21-1.62 2.556 0 4.806.72 6.75 2.16 1.944 1.44 3.294 3.474 4.05 6.102h3.888zm25.253-7.776V1H33.89v35.1h4.212V4.942H57.38zM72.995.46c-3.132 0-6.012.738-8.64 2.214-2.592 1.512-4.644 3.636-6.156 6.372-1.512 2.772-2.268 5.94-2.268 9.504 0 3.564.756 6.714 2.268 9.45 1.512 2.772 3.564 4.896 6.156 6.372 2.628 1.512 5.508 2.268 8.64 2.268 3.168 0 6.048-.756 8.64-2.268 2.592-1.476 4.644-3.6 6.156-6.372 1.548-2.736 2.322-5.886 2.322-9.45 0-3.564-.774-6.732-2.322-9.504-1.512-2.736-3.564-4.86-6.156-6.372C79.043 1.198 76.163.46 72.995.46zm0 3.996c2.448 0 4.644.54 6.588 1.62s3.474 2.682 4.59 4.806c1.152 2.124 1.728 4.68 1.728 7.668 0 2.988-.576 5.544-1.728 7.668-1.116 2.124-2.646 3.726-4.59 4.806-1.944 1.116-4.14 1.674-6.588 1.674-2.448 0-4.644-.558-6.588-1.674-1.944-1.08-3.474-2.682-4.59-4.806-1.116-2.124-1.674-4.68-1.674-7.668 0-2.988.558-5.544 1.674-7.668 1.116-2.124 2.646-3.726 4.59-4.806s4.14-1.62 6.588-1.62zm20.272 7.884c.144-2.304 1.062-4.212 2.754-5.724 1.728-1.476 3.978-2.214 6.75-2.214 2.34 0 4.14.522 5.4 1.566 1.296 1.08 1.944 2.502 1.944 4.266 0 1.656-.558 2.898-1.674 3.726-1.116.828-2.898 1.656-5.346 2.484-2.484.828-4.572 1.638-6.264 2.43a14.36 14.36 0 00-4.32 3.294c-1.188 1.368-1.782 3.078-1.782 5.13 0 1.656.432 3.186 1.296 4.59.9 1.44 2.196 2.592 3.888 3.456 1.692.864 3.69 1.296 5.994 1.296 3.672 0 6.444-1.008 8.316-3.024 1.908-1.98 2.826-4.698 2.754-8.154h-3.78c-.072 2.484-.756 4.302-2.052 5.454-1.296 1.152-3.096 1.728-5.4 1.728-1.944 0-3.564-.45-4.86-1.35-1.296-.864-1.944-2.16-1.944-3.888 0-1.08.27-1.98.81-2.7.576-.72 1.494-1.404 2.754-2.052 1.296-.612 3.168-1.332 5.616-2.16 2.052-.684 3.762-1.368 5.13-2.052 1.368-.684 2.538-1.71 3.51-3.078 1.008-1.368 1.512-3.132 1.512-5.292 0-1.764-.414-3.366-1.242-4.806-.828-1.44-2.106-2.61-3.834-3.51C107.505.892 105.381.46 102.825.46c-3.168 0-5.76.63-7.776 1.89-2.016 1.26-3.456 2.736-4.32 4.428-.864 1.692-1.296 3.24-1.296 4.644 0 .324.036.63.108.918h3.726zm46.773-7.344V1h-24.516v35.1h24.462v-3.942h-20.25V20.494h16.578v-4.05h-16.578V4.996h20.304z" fill="#000"/>
</svg>

