<svg width="138" height="37" fill="none" xmlns="http://www.w3.org/2000/svg">
  <path d="M38.714.9V36h-4.212V10.188L21.596 36h-4.158L4.532 10.242V36H.32V.9h4.212L19.49 31.734 34.502.9h4.212zm30.191 31.104V36H44.39V.9h24.462v3.942h-20.25v11.664H65.18v4.05H48.601v11.448h20.304zM103.344.9V36h-4.212L77.694 7.488V36h-4.212V.9h4.212l21.438 28.566V.9h4.212zm34.122 0v21.654c0 4.752-1.278 8.28-3.834 10.584-2.52 2.268-5.958 3.402-10.314 3.402-4.392 0-7.884-1.134-10.476-3.402-2.556-2.304-3.834-5.832-3.834-10.584V.9h4.212v21.654c0 3.744.9 6.354 2.7 7.83 1.836 1.44 4.302 2.16 7.398 2.16 3.024 0 5.436-.72 7.236-2.16 1.836-1.476 2.754-4.086 2.754-7.83V.9h4.158z" fill="#000"/>
</svg>
